<?xml version="1.0" encoding="UTF-8"?>
<svg id="Calque_2" data-name="Calque 2" xmlns="http://www.w3.org/2000/svg" xmlns:xlink="http://www.w3.org/1999/xlink" viewBox="0 0 400 400">
  <defs>
    <style>
      .cls-1 {
        stroke: #1d1d1b;
        stroke-linecap: round;
        stroke-miterlimit: 10;
        stroke-width: 6px;
      }

      .cls-1, .cls-2 {
        fill: none;
      }

      .cls-3 {
        clip-path: url(#clippath);
      }

      .cls-2 {
        stroke-width: 0px;
      }

      .cls-4 {
        clip-path: url(#clippath-1);
      }

      .cls-5 {
        clip-path: url(#clippath-4);
      }

      .cls-6 {
        clip-path: url(#clippath-3);
      }

      .cls-7 {
        clip-path: url(#clippath-2);
      }

      .cls-8 {
        clip-path: url(#clippath-7);
      }

      .cls-9 {
        clip-path: url(#clippath-6);
      }

      .cls-10 {
        clip-path: url(#clippath-5);
      }
    </style>
    <clipPath id="clippath">
      <rect class="cls-2" x="248.71" y="196.3" width="25.01" height="20.05"/>
    </clipPath>
    <clipPath id="clippath-1">
      <rect class="cls-2" x="248.8" y="324.85" width="25.01" height="20.05" transform="translate(-.42 .33) rotate(-.07)"/>
    </clipPath>
    <clipPath id="clippath-2">
      <polygon class="cls-2" points="291.7 212.55 291.7 212.55 335.57 212.55 335.57 328.93 291.7 328.93 291.7 212.55"/>
    </clipPath>
    <clipPath id="clippath-3">
      <rect class="cls-2" x="291.7" y="212.55" width="27.58" height="27.58"/>
    </clipPath>
    <clipPath id="clippath-4">
      <rect class="cls-2" x="291.74" y="301.33" width="27.58" height="27.58"/>
    </clipPath>
    <clipPath id="clippath-5">
      <polygon class="cls-2" points="230.26 212.55 230.26 212.55 186.39 212.55 186.39 328.93 230.26 328.93 230.26 212.55"/>
    </clipPath>
    <clipPath id="clippath-6">
      <rect class="cls-2" x="202.68" y="212.55" width="27.58" height="27.58"/>
    </clipPath>
    <clipPath id="clippath-7">
      <rect class="cls-2" x="202.64" y="301.33" width="27.58" height="27.58"/>
    </clipPath>
  </defs>
  <path class="cls-1" d="M195.97,320.7s-5.64-.47-11.99-4-57.85-32.93-57.85-32.93c0,0-10.58-6.59-10.58-18.11V107.86s.23-13.95,16.93-16.14c.42-.05.84-.09,1.26-.11,4.4-.21,34.57-2.42,64.36-23.69.4-.29.95-.25,1.3.09,3.9,3.77,26.77,24.17,65.43,23.9,1.75-.01,3.5.2,5.18.72,4.5,1.41,12.45,5.08,12.28,13.35v90.54"/>
  <path class="cls-1" d="M151.34,177.27c-1.17,2.04-.73,4.62.93,6.29l30.23,30.23s6.64,6.81,13.28-1.75l49.96-49.79s3.64-3.33,0-8.39c0,0-3.84-5.76-8.73-1.22l-47.99,48.64c-.12.12-.32.13-.45,0l-27.95-27.02s-3.41-3.17-7.47.91c0,0-1.05.77-1.81,2.09Z"/>
  <ellipse class="cls-1" cx="261.22" cy="270.45" rx="26.93" ry="27.04"/>
  <g>
    <path class="cls-1" d="M227.48,223.82c7.05-5.15,15.32-8.74,24.29-10.23"/>
    <path class="cls-1" d="M204.33,260.99c1.38-8.8,4.93-16.49,9.81-23.5"/>
    <path class="cls-1" d="M214.08,304c-4.86-6.87-8.3-15.18-9.7-23.89"/>
    <path class="cls-1" d="M251.71,327.3c-8.78-1.47-16.91-4.89-23.89-9.82"/>
    <path class="cls-1" d="M294.49,317.59c-6.95,5-14.89,8.32-23.73,9.75"/>
    <path class="cls-1" d="M317.9,280.12c-1.42,8.99-4.88,16.83-9.9,23.92"/>
    <path class="cls-1" d="M308.02,237.33c4.92,6.95,8.38,15,9.9,23.63"/>
    <path class="cls-1" d="M271.25,213.7c8.47,1.5,16.32,4.94,23.1,9.83"/>
    <g>
      <g id="_Répétition_miroir_" data-name="&amp;lt;Répétition miroir&amp;gt;">
        <g class="cls-3">
          <path class="cls-1" d="M251.73,213.11v-8.99s-.51-4.79,4.89-4.81l9.84.08s4.17-.45,4.27,4.34v9.63"/>
        </g>
      </g>
      <g id="_Répétition_miroir_-2" data-name="&amp;lt;Répétition miroir&amp;gt;">
        <g class="cls-4">
          <path class="cls-1" d="M251.8,328.11v8.99s-.5,4.79,4.9,4.81l9.84-.09s4.17.44,4.27-4.34l-.02-9.63"/>
        </g>
      </g>
    </g>
    <g>
      <g id="_Répétition_miroir_-3" data-name="&amp;lt;Répétition miroir&amp;gt;">
        <g class="cls-7">
          <g>
            <g id="_Répétition_miroir_-4" data-name="&amp;lt;Répétition miroir&amp;gt;">
              <g class="cls-6">
                <path class="cls-1" d="M294.7,223.64l6.3-6.41s3-3.77,6.86,0l6.96,6.96s3.29,2.61,0,6.09l-6.76,6.86"/>
              </g>
            </g>
            <g id="_Répétition_miroir_-5" data-name="&amp;lt;Répétition miroir&amp;gt;">
              <g class="cls-5">
                <path class="cls-1" d="M294.74,317.84l6.31,6.4s3,3.77,6.86,0l6.95-6.96s3.28-2.61,0-6.09l-6.77-6.85"/>
              </g>
            </g>
          </g>
          <path class="cls-1" d="M318.71,261l8.99-.07s4.78-.55,4.85,4.85v9.84s.48,4.17-4.3,4.3l-9.63.07"/>
        </g>
      </g>
      <g id="_Répétition_miroir_-6" data-name="&amp;lt;Répétition miroir&amp;gt;">
        <g class="cls-10">
          <g>
            <g id="_Répétition_miroir_-7" data-name="&amp;lt;Répétition miroir&amp;gt;">
              <g class="cls-9">
                <path class="cls-1" d="M227.26,223.64l-6.3-6.41s-3-3.77-6.86,0l-6.96,6.96s-3.29,2.61,0,6.09l6.76,6.86"/>
              </g>
            </g>
            <g id="_Répétition_miroir_-8" data-name="&amp;lt;Répétition miroir&amp;gt;">
              <g class="cls-8">
                <path class="cls-1" d="M227.22,317.84l-6.31,6.4s-3,3.77-6.86,0l-6.95-6.96s-3.28-2.61,0-6.09l6.77-6.85"/>
              </g>
            </g>
          </g>
          <path class="cls-1" d="M203.24,261l-8.99-.07s-4.78-.55-4.85,4.85v9.84s-.48,4.17,4.3,4.3l9.63.07"/>
        </g>
      </g>
    </g>
  </g>
</svg>